<svg width="20" height="20" viewBox="0 0 20 20" fill="none" xmlns="http://www.w3.org/2000/svg">
<path d="M13.535 0.807967C12.779 0.0519668 11.463 0.0519668 10.707 0.807967L0.807999 10.707C0.433301 11.0822 0.222839 11.5907 0.222839 12.121C0.222839 12.6512 0.433301 13.1598 0.807999 13.535L6.465 19.192C6.843 19.57 7.345 19.778 7.879 19.778C8.413 19.778 8.915 19.57 9.293 19.192L19.192 9.29297C19.57 8.91497 19.778 8.41297 19.778 7.87897C19.778 7.34497 19.57 6.84297 19.192 6.46497L13.535 0.807967ZM7.879 17.778L2.222 12.121L12.121 2.22197L17.778 7.87897L7.879 17.778Z" fill="#E9DDB5"/>
<path d="M7 14C7.55228 14 8 13.5523 8 13C8 12.4477 7.55228 12 7 12C6.44772 12 6 12.4477 6 13C6 13.5523 6.44772 14 7 14Z" fill="#E9DDB5"/>
<path d="M13.707 19.707L12.293 18.293L18.293 12.293L19.707 13.708L13.707 19.707ZM6.29303 0.292969L7.70703 1.70697L1.70703 7.70697L0.29303 6.29197L6.29303 0.292969Z" fill="#E9DDB5"/>
</svg>
