<svg width="63" height="60" viewBox="0 0 63 60" fill="none" xmlns="http://www.w3.org/2000/svg">
<mask id="path-1-inside-1_301_2540" fill="white">
<path fill-rule="evenodd" clip-rule="evenodd" d="M31.0077 60C48.1327 60 62.0153 46.5685 62.0153 30C62.0153 13.4315 48.1327 0 31.0077 0C13.8826 0 0 13.4315 0 30C0 46.5685 13.8826 60 31.0077 60ZM39.9204 25.8131L29.3722 18.4912C28.8748 18.1458 28.2966 17.9475 27.6994 17.9176C27.1022 17.8877 26.5084 18.0273 25.9815 18.3215C25.4546 18.6156 25.0144 19.0533 24.708 19.5876C24.4015 20.122 24.2403 20.733 24.2416 21.3554V35.9958C24.2415 36.6176 24.4036 37.2277 24.7105 37.7611C25.0175 38.2945 25.4578 38.7311 25.9844 39.0245C26.5111 39.3178 27.1044 39.4568 27.7011 39.4266C28.2977 39.3964 28.8753 39.1982 29.3722 38.8532L39.9204 31.5312C40.3722 31.2176 40.7428 30.7927 40.999 30.2943C41.2553 29.7958 41.3893 29.2392 41.3893 28.6739C41.3893 28.1086 41.2553 27.552 40.999 27.0535C40.7428 26.5551 40.3722 26.1267 39.9204 25.8131Z"/>
</mask>
<path fill-rule="evenodd" clip-rule="evenodd" d="M31.0077 60C48.1327 60 62.0153 46.5685 62.0153 30C62.0153 13.4315 48.1327 0 31.0077 0C13.8826 0 0 13.4315 0 30C0 46.5685 13.8826 60 31.0077 60ZM39.9204 25.8131L29.3722 18.4912C28.8748 18.1458 28.2966 17.9475 27.6994 17.9176C27.1022 17.8877 26.5084 18.0273 25.9815 18.3215C25.4546 18.6156 25.0144 19.0533 24.708 19.5876C24.4015 20.122 24.2403 20.733 24.2416 21.3554V35.9958C24.2415 36.6176 24.4036 37.2277 24.7105 37.7611C25.0175 38.2945 25.4578 38.7311 25.9844 39.0245C26.5111 39.3178 27.1044 39.4568 27.7011 39.4266C28.2977 39.3964 28.8753 39.1982 29.3722 38.8532L39.9204 31.5312C40.3722 31.2176 40.7428 30.7927 40.999 30.2943C41.2553 29.7958 41.3893 29.2392 41.3893 28.6739C41.3893 28.1086 41.2553 27.552 40.999 27.0535C40.7428 26.5551 40.3722 26.1267 39.9204 25.8131Z" fill="#FFEFE3"/>
<path d="M29.3722 18.4912L28.8017 19.3125L28.8019 19.3126L29.3722 18.4912ZM39.9204 25.8131L39.3501 26.6346L39.3502 26.6346L39.9204 25.8131ZM27.6994 17.9176L27.7494 16.9189H27.7494L27.6994 17.9176ZM25.9815 18.3215L25.4941 17.4483H25.4941L25.9815 18.3215ZM24.708 19.5876L23.8405 19.0902V19.0902L24.708 19.5876ZM24.2416 21.3554H25.2416L25.2416 21.3533L24.2416 21.3554ZM24.2416 35.9958L25.2416 35.996V35.9958H24.2416ZM25.9844 39.0245L25.4979 39.8981L25.4979 39.8981L25.9844 39.0245ZM27.7011 39.4266L27.7516 40.4253H27.7516L27.7011 39.4266ZM29.3722 38.8532L28.8019 38.0317L28.8018 38.0318L29.3722 38.8532ZM39.9204 31.5312L39.3502 30.7097L39.3501 30.7097L39.9204 31.5312ZM40.999 30.2943L40.1097 29.837L40.1096 29.837L40.999 30.2943ZM40.999 27.0535L40.1096 27.5107V27.5107L40.999 27.0535ZM62.0153 30H61.0153C61.0153 45.9854 47.6118 59 31.0077 59V60V61C48.6536 61 63.0153 47.1517 63.0153 30H62.0153ZM31.0077 0V1C47.6118 1 61.0153 14.0146 61.0153 30H62.0153H63.0153C63.0153 12.8483 48.6536 -1 31.0077 -1V0ZM0 30H1C1 14.0146 14.4035 1 31.0077 1V0V-1C13.3617 -1 -1 12.8483 -1 30H0ZM31.0077 60V59C14.4035 59 1 45.9854 1 30H0H-1C-1 47.1517 13.3617 61 31.0077 61V60ZM29.3722 18.4912L28.8019 19.3126L39.3501 26.6346L39.9204 25.8131L40.4906 24.9916L29.9424 17.6697L29.3722 18.4912ZM27.6994 17.9176L27.6494 18.9164C28.0575 18.9368 28.4558 19.0723 28.8017 19.3125L29.3722 18.4912L29.9426 17.6698C29.2938 17.2192 28.5357 16.9582 27.7494 16.9189L27.6994 17.9176ZM25.9815 18.3215L26.469 19.1946C26.8336 18.9911 27.2414 18.896 27.6494 18.9164L27.6994 17.9176L27.7494 16.9189C26.963 16.8795 26.1832 17.0636 25.4941 17.4483L25.9815 18.3215ZM24.708 19.5876L25.5754 20.0851C25.7936 19.7047 26.1039 19.3984 26.469 19.1946L25.9815 18.3215L25.4941 17.4483C24.8053 17.8328 24.2352 18.4019 23.8405 19.0902L24.708 19.5876ZM24.2416 21.3554L25.2416 21.3533C25.2406 20.9043 25.3571 20.4659 25.5754 20.0851L24.708 19.5876L23.8405 19.0902C23.4459 19.7782 23.2399 20.5617 23.2416 21.3574L24.2416 21.3554ZM24.2416 35.9958H25.2416V21.3554H24.2416H23.2416V35.9958H24.2416ZM24.7105 37.7611L25.5772 37.2623C25.3586 36.8823 25.2415 36.4445 25.2416 35.996L24.2416 35.9958L23.2416 35.9957C23.2415 36.7906 23.4485 37.5731 23.8438 38.2599L24.7105 37.7611ZM25.9844 39.0245L26.471 38.1508C26.1061 37.9476 25.7958 37.642 25.5772 37.2623L24.7105 37.7611L23.8438 38.2599C24.2391 38.9469 24.8094 39.5147 25.4979 39.8981L25.9844 39.0245ZM27.7011 39.4266L27.6506 38.4279C27.2429 38.4485 26.8355 38.3538 26.471 38.1508L25.9844 39.0245L25.4979 39.8981C26.1867 40.2817 26.9659 40.4651 27.7516 40.4253L27.7011 39.4266ZM29.3722 38.8532L28.8018 38.0318C28.4561 38.2718 28.0582 38.4073 27.6506 38.4279L27.7011 39.4266L27.7516 40.4253C28.5371 40.3856 29.2944 40.1247 29.9426 39.6745L29.3722 38.8532ZM39.9204 31.5312L39.3501 30.7097L28.8019 38.0317L29.3722 38.8532L29.9424 39.6747L40.4906 32.3527L39.9204 31.5312ZM40.999 30.2943L40.1096 29.837C39.9269 30.1926 39.6648 30.4913 39.3502 30.7097L39.9204 31.5312L40.4905 32.3527C41.0797 31.9438 41.5587 31.3928 41.8884 30.7515L40.999 30.2943ZM41.3893 28.6739H40.3893C40.3893 29.0816 40.2925 29.4813 40.1097 29.837L40.999 30.2943L41.8884 30.7515C42.218 30.1103 42.3893 29.3968 42.3893 28.6739H41.3893ZM40.999 27.0535L40.1096 27.5107C40.2925 27.8665 40.3893 28.2662 40.3893 28.6739H41.3893H42.3893C42.3893 27.951 42.218 27.2375 41.8884 26.5963L40.999 27.0535ZM39.9204 25.8131L39.3502 26.6346C39.6625 26.8514 39.9256 27.1526 40.1096 27.5107L40.999 27.0535L41.8884 26.5963C41.56 25.9575 41.082 25.4021 40.4905 24.9916L39.9204 25.8131Z" fill="url(#paint0_linear_301_2540)" mask="url(#path-1-inside-1_301_2540)"/>
<defs>
<linearGradient id="paint0_linear_301_2540" x1="31.0077" y1="0" x2="31.0077" y2="60" gradientUnits="userSpaceOnUse">
<stop stop-color="#6EC3F3"/>
<stop offset="1" stop-color="#0ED1D6"/>
</linearGradient>
</defs>
</svg>
