<svg width="76" height="76" viewBox="0 0 76 76" fill="none" xmlns="http://www.w3.org/2000/svg">
<mask id="path-1-inside-1_2013_2524" fill="white">
<path fill-rule="evenodd" clip-rule="evenodd" d="M38 76C58.9868 76 76 58.9868 76 38C76 17.0132 58.9868 0 38 0C17.0132 0 0 17.0132 0 38C0 58.9868 17.0132 76 38 76ZM48.9226 32.6964L35.9957 23.4219C35.3862 22.9844 34.6777 22.7333 33.9458 22.6954C33.2139 22.6576 32.4862 22.8344 31.8405 23.207C31.1948 23.5796 30.6553 24.1339 30.2798 24.8108C29.9042 25.4877 29.7066 26.2616 29.7082 27.0499V45.5945C29.7081 46.3821 29.9067 47.1549 30.2829 47.8305C30.659 48.5061 31.1986 49.0592 31.8441 49.4308C32.4895 49.8023 33.2166 49.9784 33.9478 49.9402C34.679 49.9019 35.3868 49.6509 35.9957 49.2138L48.9226 39.9393C49.4764 39.5421 49.9304 39.0039 50.2445 38.3725C50.5585 37.7411 50.7228 37.0361 50.7228 36.32C50.7228 35.604 50.5585 34.8989 50.2445 34.2676C49.9304 33.6362 49.4764 33.0936 48.9226 32.6964Z"/>
</mask>
<path fill-rule="evenodd" clip-rule="evenodd" d="M38 76C58.9868 76 76 58.9868 76 38C76 17.0132 58.9868 0 38 0C17.0132 0 0 17.0132 0 38C0 58.9868 17.0132 76 38 76ZM48.9226 32.6964L35.9957 23.4219C35.3862 22.9844 34.6777 22.7333 33.9458 22.6954C33.2139 22.6576 32.4862 22.8344 31.8405 23.207C31.1948 23.5796 30.6553 24.1339 30.2798 24.8108C29.9042 25.4877 29.7066 26.2616 29.7082 27.0499V45.5945C29.7081 46.3821 29.9067 47.1549 30.2829 47.8305C30.659 48.5061 31.1986 49.0592 31.8441 49.4308C32.4895 49.8023 33.2166 49.9784 33.9478 49.9402C34.679 49.9019 35.3868 49.6509 35.9957 49.2138L48.9226 39.9393C49.4764 39.5421 49.9304 39.0039 50.2445 38.3725C50.5585 37.7411 50.7228 37.0361 50.7228 36.32C50.7228 35.604 50.5585 34.8989 50.2445 34.2676C49.9304 33.6362 49.4764 33.0936 48.9226 32.6964Z" fill="#FFEFE3"/>
<path d="M35.9957 23.4219L33.0801 27.4838L33.081 27.4845L35.9957 23.4219ZM48.9226 32.6964L46.0079 36.7589L46.0081 36.7591L48.9226 32.6964ZM33.9458 22.6954L34.2041 17.7021L34.204 17.7021L33.9458 22.6954ZM31.8405 23.207L34.3394 27.5378L34.3394 27.5377L31.8405 23.207ZM30.2798 24.8108L34.6518 27.2367L34.6518 27.2367L30.2798 24.8108ZM29.7082 27.0499L34.7082 27.0499L34.7082 27.0399L29.7082 27.0499ZM29.7082 45.5945L34.7082 45.5952V45.5945H29.7082ZM30.2829 47.8305L25.9143 50.2627L25.9143 50.2627L30.2829 47.8305ZM33.9478 49.9402L33.6869 44.947L33.6869 44.947L33.9478 49.9402ZM35.9957 49.2138L33.081 45.1512L33.0801 45.1519L35.9957 49.2138ZM48.9226 39.9393L46.0081 35.8766L46.0079 35.8768L48.9226 39.9393ZM50.2445 38.3725L45.7677 36.1457L45.7677 36.1458L50.2445 38.3725ZM50.2445 34.2676L45.7677 36.4943L45.7677 36.4943L50.2445 34.2676ZM76 38H71C71 56.2254 56.2254 71 38 71V76V81C61.7482 81 81 61.7482 81 38H76ZM38 0V5C56.2254 5 71 19.7746 71 38H76H81C81 14.2518 61.7482 -5 38 -5V0ZM0 38H5C5 19.7746 19.7746 5 38 5V0V-5C14.2518 -5 -5 14.2518 -5 38H0ZM38 76V71C19.7746 71 5 56.2254 5 38H0H-5C-5 61.7482 14.2518 81 38 81V76ZM35.9957 23.4219L33.081 27.4845L46.0079 36.7589L48.9226 32.6964L51.8373 28.6338L38.9105 19.3593L35.9957 23.4219ZM33.9458 22.6954L33.6875 27.6888C33.4389 27.6759 33.2293 27.5909 33.0801 27.4838L35.9957 23.4219L38.9114 19.36C37.5432 18.3779 35.9164 17.7907 34.2041 17.7021L33.9458 22.6954ZM31.8405 23.207L34.3394 27.5377C34.1646 27.6386 33.9369 27.7017 33.6875 27.6888L33.9458 22.6954L34.204 17.7021C32.491 17.6135 30.8079 18.0302 29.3416 18.8762L31.8405 23.207ZM30.2798 24.8108L34.6518 27.2367C34.605 27.3211 34.5103 27.4392 34.3394 27.5378L31.8405 23.207L29.3416 18.8762C27.8793 19.72 26.7056 20.9468 25.9077 22.3849L30.2798 24.8108ZM29.7082 27.0499L34.7082 27.0399C34.7083 27.0875 34.6976 27.1542 34.6518 27.2367L30.2798 24.8108L25.9077 22.3849C25.1108 23.8211 24.705 25.4358 24.7082 27.0599L29.7082 27.0499ZM29.7082 45.5945H34.7082V27.0499H29.7082H24.7082V45.5945H29.7082ZM30.2829 47.8305L34.6514 45.3983C34.6974 45.4808 34.7082 45.5477 34.7082 45.5952L29.7082 45.5945L24.7082 45.5938C24.708 47.2165 25.116 48.8289 25.9143 50.2627L30.2829 47.8305ZM31.8441 49.4308L34.3385 45.0974C34.5094 45.1958 34.6044 45.3138 34.6514 45.3983L30.2829 47.8305L25.9143 50.2627C26.7137 51.6985 27.8878 52.9226 29.3497 53.7641L31.8441 49.4308ZM33.9478 49.9402L33.6869 44.947C33.936 44.934 34.1636 44.9967 34.3385 45.0974L31.8441 49.4308L29.3497 53.7641C30.8155 54.6079 32.4973 55.0228 34.2088 54.9333L33.9478 49.9402ZM35.9957 49.2138L33.0801 45.1519C33.2291 45.0449 33.4385 44.9599 33.6869 44.947L33.9478 49.9402L34.2087 54.9333C35.9195 54.8439 37.5444 54.2569 38.9114 53.2757L35.9957 49.2138ZM48.9226 39.9393L46.0079 35.8768L33.081 45.1512L35.9957 49.2138L38.9105 53.2764L51.8373 44.0019L48.9226 39.9393ZM50.2445 38.3725L45.7677 36.1458C45.8038 36.0731 45.8758 35.9716 46.0081 35.8766L48.9226 39.9393L51.8371 44.0021C53.077 43.1126 54.057 41.9346 54.7213 40.5992L50.2445 38.3725ZM50.7228 36.32H45.7228C45.7228 36.2758 45.7321 36.2173 45.7677 36.1457L50.2445 38.3725L54.7213 40.5993C55.3849 39.265 55.7228 37.7964 55.7228 36.32H50.7228ZM50.2445 34.2676L45.7677 36.4943C45.7321 36.4228 45.7228 36.3642 45.7228 36.32H50.7228H55.7228C55.7228 34.8437 55.3849 33.3751 54.7213 32.0408L50.2445 34.2676ZM48.9226 32.6964L46.0081 36.7591C45.8647 36.6562 45.7975 36.5542 45.7677 36.4943L50.2445 34.2676L54.7213 32.0408C54.0634 30.7182 53.0881 29.5311 51.8371 28.6336L48.9226 32.6964Z" fill="url(#paint0_linear_2013_2524)" mask="url(#path-1-inside-1_2013_2524)"/>
<defs>
<linearGradient id="paint0_linear_2013_2524" x1="38" y1="0" x2="38" y2="76" gradientUnits="userSpaceOnUse">
<stop stop-color="#6EC3F3"/>
<stop offset="1" stop-color="#0ED1D6"/>
</linearGradient>
</defs>
</svg>
